<svg xmlns="http://www.w3.org/2000/svg" width="21.982" height="19.999" viewBox="0 0 21.982 19.999">
  <path id="google_plus" data-name="google plus" d="M0,16.349c0-2.372,3.143-4.3,6.593-4.3.376,0,.722,0,1.078,0a2.538,2.538,0,0,1-.847-1.774,2.618,2.618,0,0,1,.316-1.186c-.188.015-.379.067-.576.067a4.5,4.5,0,0,1-4.734-4.6C1.831,2.005,4.452,0,7.24,0h6.216L12.064.95h-1.97c1.307,0,1.889,1.967,1.889,3.594a4,4,0,0,1-1.641,3.233c-1,.815-1.193,1.156-1.193,1.85,0,.591,1.075,1.6,1.635,2.012a4.44,4.44,0,0,1,2.031,4.2C12.815,18.179,10.784,20,6.85,20,3.4,20,0,18.686,0,16.349Zm2.729-.341c0,1.887,1.724,2.955,4.109,2.955,3.354,0,4.294-.97,4.294-2.856a3.035,3.035,0,0,0-.076-.664c-.262-1.072-.962-1.6-2.257-2.539a5.064,5.064,0,0,0-1.548-.257H7.183C4.824,12.646,2.729,14.177,2.729,16.008ZM4.065,4.345c.275,2.19,1.8,4,3.4,4.053s2.673-1.683,2.4-3.874S8.063.583,6.462.533H6.393C4.83.532,3.791,2.189,4.065,4.345ZM17.414,8.582V5.725h-2.74V3.809h2.74V.906h1.831v2.9h2.738V5.725H19.245V8.582Z" fill="#fff"/>
</svg>
