<svg xmlns="http://www.w3.org/2000/svg" width="19.501" height="19.5" viewBox="0 0 19.501 19.5">
  <g id="call-cancel-svgrepo-com" transform="translate(-2.25 -2.249)">
    <path id="Path_172" data-name="Path 172" d="M8.986,3.476a2.752,2.752,0,0,0-4.268-.385L3.148,4.744a3.055,3.055,0,0,0-.894,2.262c.1,1.849.884,5.634,5.018,9.986,4.429,4.663,8.654,4.9,10.478,4.718a2.886,2.886,0,0,0,1.8-.939l1.42-1.5a3,3,0,0,0-.708-4.613l-1.91-1.1a2.7,2.7,0,0,0-3.335.469l-.409.43a.608.608,0,0,1-.293.007c-.4-.065-1.271-.421-2.7-1.929A6.02,6.02,0,0,1,9.761,9.655a.785.785,0,0,1,.013-.372l0-.006.245-.258a2.987,2.987,0,0,0,.225-3.76Zm-3.18.649a1.254,1.254,0,0,1,1.956.217L9.022,6.126a1.487,1.487,0,0,1-.088,1.861l-.287.3.532.5c-.532-.5-.532-.5-.533-.5v0l0,0L8.635,8.3l-.013.015-.031.037a1.259,1.259,0,0,0-.073.1,1.591,1.591,0,0,0-.157.324,2.258,2.258,0,0,0-.084,1.092,7.343,7.343,0,0,0,2.243,3.7c1.523,1.6,2.673,2.234,3.55,2.376a2.049,2.049,0,0,0,1.091-.094,1.52,1.52,0,0,0,.322-.173,1.238,1.238,0,0,0,.1-.079l.036-.033.014-.014.006-.006,0,0h0s0,0-.526-.5l.527.5.455-.479a1.2,1.2,0,0,1,1.5-.2l1.91,1.1a1.5,1.5,0,0,1,.369,2.28l-1.42,1.5a1.4,1.4,0,0,1-.855.479c-1.435.142-5.179.021-9.243-4.258C4.483,11.878,3.833,8.435,3.752,6.926a1.562,1.562,0,0,1,.484-1.148Z" fill="#fff" fill-rule="evenodd"/>
  </g>
</svg>
