<svg id="akes" xmlns="http://www.w3.org/2000/svg" width="79.583" height="17.997" viewBox="0 0 79.583 17.997">
  <path id="Path_153" data-name="Path 153" d="M16.386,82.773l2.506,6.149H14.086Zm3.177,8.215c.1.337.879,2.225.879,2.328,0,.155-.128.283-.487.307v.312h5.088v-.312c-.31,0-.465-.152-.726-.772-1.6-3.929-4.782-11.655-4.782-11.863,0-.256.185-.307.468-.337v-.308H13.26v.307c.233.029.516.081.516.261,0,.153-4.367,11.524-4.6,12.118a.755.755,0,0,1-.669.593v.312h4.573v-.312c-.362,0-.463-.1-.463-.253a20.912,20.912,0,0,1,.825-2.381ZM48.5,93.935v-.312c.3,0,.489,0,.489-.333,0-.31-3.179-4.857-3.569-5.506l-2.53,2.277v3.1c0,.236.075.415.724.465v.312H38.284v-.312c.647-.05.722-.229.722-.465V81.116c0-.23-.075-.412-.722-.465v-.308h5.326v.307c-.649.054-.724.235-.724.465v4.653h.18c2.067-2.016,5.065-4.5,5.065-4.781,0-.307-.179-.307-.465-.337v-.307h6.566v.307c-.67.054-.8.261-1.446.828l-4.473,3.85,5.272,7.884a.794.794,0,0,0,.828.409v.312H48.5Zm18.943-4.963h-.31a.7.7,0,0,0-.776-.594H61.543v2.406h8.3c.284,0,.388-.127.465-.78h.315v4.5H70.3c-.077-.438-.181-.568-.465-.568H56.948v-.312c.64-.05.718-.229.718-.465V81.116c0-.23-.078-.412-.718-.465v-.308H69.839c.284,0,.388-.131.465-.726h.315v4.5H70.3c-.077-.6-.181-.726-.465-.726h-8.3v2.144h4.809a.694.694,0,0,0,.776-.593h.31Zm7.622-.412.26.131a1.543,1.543,0,0,0-.053.539c0,.7,2.768,1.862,5.456,1.862,2.583,0,3.745-.62,3.745-1.757,0-1.915-10.651.209-10.651-4.781,0-2.586,2.485-4.367,6.282-4.367,3.539,0,6.1,1.083,6.8,1.083a.88.88,0,0,0,.7-.384l.286.1L86.1,84.579l-.308-.154v-.287c0-.646-2.952-1.368-5.375-1.368-2.254,0-3.029.618-3.029,1.216,0,2.3,10.7-.52,10.7,5.423,0,2.225-1.68,4.682-7.29,4.682A21.247,21.247,0,0,1,73.972,92.9c-.2,0-.357.182-.515.337l-.309-.081,1.911-4.6Zm4.072-8.967L76.748,76.5h2.646l1.353,1.731L82.081,76.5h2.644l-2.381,3.087ZM25.311,83.1v3.259h1.363v6.316a1.262,1.262,0,0,0,1.26,1.26H34.17a1.262,1.262,0,0,0,1.26-1.26l.014-6.353h1.425V83.1Zm5.6,9.963h-2.98a.388.388,0,0,1-.388-.388V84.617h3.346Zm3.643-.388a.388.388,0,0,1-.388.388H32.884v-8.5h1.674v8.109Z" transform="translate(-8.504 -76.505)" fill="#fff" fill-rule="evenodd"/>
</svg>
