<svg id="bsm" xmlns="http://www.w3.org/2000/svg" width="49.199" height="27.762" viewBox="0 0 49.199 27.762">
  <path id="Path_155" data-name="Path 155" d="M40.1,57.736c.822,1.8,3.983,1.908,7.278.8C50,57.384,50.7,58.11,49.464,60.4,43.517,68,37.57,70.066,31.623,71.211c9.162,1.952,25.369-8.566,21.607-14.432-1.506-1.461-3.789-1.359-7.022,0-2.561.89-3.535-.767-2.426-3.115,5.3-7.1,9.036-7.863,15.075-9.966C49.613,43.415,36.805,50.647,40.1,57.736Z" transform="translate(-24.052 -43.687)" fill="#fff" fill-rule="evenodd"/>
  <path id="Path_156" data-name="Path 156" d="M2.837,64.833l6.757,0a18.631,18.631,0,0,1,2.992.175,4.268,4.268,0,0,1,1.764.738,4.486,4.486,0,0,1,1.3,1.49,4.248,4.248,0,0,1,.519,2.089,4.347,4.347,0,0,1-.638,2.3A4.057,4.057,0,0,1,13.791,73.2a4.42,4.42,0,0,1,2.372,1.616,4.475,4.475,0,0,1,.832,2.691,5.561,5.561,0,0,1-.534,2.368A4.716,4.716,0,0,1,15,81.712a4.657,4.657,0,0,1-2.292.849c-.567.065-1.942.107-4.114.12H2.834l0-17.847Zm3.412,2.809v4.291H8.486c1.329,0,2.157-.023,2.479-.062a2.2,2.2,0,0,0,1.375-.638,2.374,2.374,0,0,0,.5-1.557,2.031,2.031,0,0,0-.43-1.344,1.9,1.9,0,0,0-1.289-.625c-.337-.041-1.31-.059-2.915-.062l-1.961,0Zm0,6.935v5.178H9.406a15.518,15.518,0,0,0,2.341-.11,2.125,2.125,0,0,0,1.239-.709,3.568,3.568,0,0,0,.479-1.919,2.43,2.43,0,0,0-.368-1.364,2.086,2.086,0,0,0-1.065-.816A11.159,11.159,0,0,0,9,74.58l-2.755,0Zm28.412,8.1,0-17.844h4.792l3.828,12.979L47.15,64.836h4.883V82.68H48.981V68.633L45.089,82.68h-3.5L37.552,68.633V82.68h-2.89Z" transform="translate(-2.834 -59.272)" fill="#fff" fill-rule="evenodd"/>
  <path id="Path_157" data-name="Path 157" d="M40.1,57.736c.822,1.8,3.983,1.908,7.278.8C50,57.384,50.7,58.11,49.464,60.4,43.517,68,37.57,70.066,31.623,71.211c9.162,1.952,25.369-8.566,21.607-14.432-1.506-1.461-3.789-1.359-7.022,0-2.561.89-3.535-.767-2.426-3.115,5.3-7.1,9.036-7.863,15.075-9.966C49.613,43.415,36.805,50.647,40.1,57.736Z" transform="translate(-24.052 -43.687)" fill="#fff" fill-rule="evenodd"/>
</svg>
