<svg xmlns="http://www.w3.org/2000/svg" width="362.071" height="352.031" viewBox="0 0 362.071 352.031">
  <g id="Group_2407" data-name="Group 2407" transform="translate(-1392.964 -284.969)">
    <path id="Op_component_9" data-name="Op component 9" d="M0,0,59.35.787v61.4L0,62.626Z" transform="translate(1468.139 356.795)" fill="#0a43af"/>
    <path id="Op_component_10" data-name="Op component 10" d="M0,0,59.35.787v61.4L0,62.626Z" transform="translate(1550.122 438.41)" fill="#0a43af"/>
    <path id="Op_component_11" data-name="Op component 11" d="M0,0,59.35.787v61.4L0,62.626Z" transform="translate(1627.229 356.795)" fill="#0a43af"/>
    <path id="Op_component_12" data-name="Op component 12" d="M0,0,59.35.787v61.4L0,62.626Z" transform="translate(1695.686 438.41)" fill="#0a43af"/>
    <path id="Op_component_13" data-name="Op component 13" d="M21.665.184,0,30.127l1.9,9.711L30.058,4.105Z" transform="translate(1447.086 413.664)" fill="#0a43af"/>
    <path id="Op_component_14" data-name="Op component 14" d="M5.43.051,30.958,33.866l-2.751,9.866L0,7.915Z" transform="translate(1522.183 409.643)" fill="#0a43af"/>
    <path id="Op_component_15" data-name="Op component 15" d="M25.5.24,0,34.087l2.791,9.989L30.815,8.161Z" transform="translate(1604.906 409.643)" fill="#0a43af"/>
    <path id="Op_component_16" data-name="Op component 16" d="M5.344.049,30.057,33.412,28.2,43.045,0,7.232Z" transform="translate(1677.946 410.328)" fill="#0a43af"/>
    <path id="Op_component_21" data-name="Op component 21" d="M0,0,59.35.787v61.4L0,62.626Z" transform="translate(1392.964 438.41)" fill="#0a43af"/>
    <path id="Shape_1_copy_8" data-name="Shape 1 copy 8" d="M78.663,352.031V292.888h58.624v59.143Zm72.131-71.555V221.341h58.624v59.135ZM0,280.477V221.341H58.624v59.135ZM78.663,59.143V0h58.624V59.143Z" transform="translate(1473.955 284.969)" fill="#f09300"/>
  </g>
</svg>
