<svg id="hurst-jaws-of-life" xmlns="http://www.w3.org/2000/svg" width="75.012" height="18.416" viewBox="0 0 75.012 18.416">
  <path id="Path_148" data-name="Path 148" d="M22.883,86.635V75.106h3.779V79h3.571V75.106h3.779V86.635H30.234V82.167H26.663v4.468H22.883ZM36.23,75.106H40.01v6.9c0,1.137.224,2.113,1.778,2.113,1.361,0,1.761-.864,1.761-2.113v-6.9h3.779v6.517c0,3.7-1.714,5.316-5.54,5.316-3.572,0-5.558-1.361-5.558-5.331ZM53.2,82.615v4.02H49.419V75.106h5.444c3.844,0,5.109,1.04,5.109,3.283a2.668,2.668,0,0,1-1.937,2.818c1.216.448,1.953.736,1.953,3.058,0,1.505-.048,2.018.4,2.018v.352H56.561a7.5,7.5,0,0,1-.192-2.018c0-1.5-.258-2-2.018-2H53.2Zm0-2.529h1.489c1.169,0,1.794-.289,1.794-1.089,0-.817-.641-1.2-1.521-1.2H53.2v2.29ZM68.02,78.452a1.013,1.013,0,0,0-.544-.784,2.1,2.1,0,0,0-.977-.209c-.834,0-1.2.241-1.2.657,0,1.73,6.63.657,6.63,4.852,0,2.674-2.227,3.971-5.4,3.971-3.043,0-5.028-1.777-5.109-3.858H65.04a1.321,1.321,0,0,0,.624.913,2.077,2.077,0,0,0,1.074.289c.945,0,1.57-.3,1.57-.849,0-1.746-6.63-.544-6.63-4.949,0-2.387,2-3.617,4.774-3.68h.439c3.051.073,4.449,1.675,4.716,3.647H68.02Zm4.928-3.346H83.516v3.026h-3.4v8.5H76.342v-8.5h-3.4V75.106ZM21.063,91.527a1.193,1.193,0,0,1-.547,1.134,3.012,3.012,0,0,1-1.783.516,2.43,2.43,0,0,1-1.868-.729l1.214-.847a.583.583,0,0,0,.6.478c.355,0,.526-.184.526-.574V88.131h1.857Zm2.519.662-.494.855H21.123l2.749-4.914H25.9l2.7,4.914H26.609l-.462-.855Zm1.3-2.541L24.1,91.218h1.545Zm5.893,1.657,1.514-3.175H33.77l1.406,3.175,1.353-3.175h1.562l-1.906,4.914h-1.9l-1.3-2.844-1.375,2.844h-1.89l-2.137-4.914h1.944l1.245,3.175Zm11.848-1.9a2.434,2.434,0,0,0-1.224-.332c-.44,0-.794.184-.794.419,0,.155.161.28.482.383.1.029.172.045.805.177,1.245.25,1.761.655,1.761,1.362,0,1.105-1.031,1.753-2.792,1.753a5.8,5.8,0,0,1-2.49-.553l.794-1.031a3.145,3.145,0,0,0,1.643.5c.547,0,.9-.192.9-.478,0-.265-.247-.39-1.117-.567a4.422,4.422,0,0,1-1.4-.413,1.048,1.048,0,0,1-.537-.957c0-.987.416-1.657,1.865-1.657a10.555,10.555,0,0,1,2.837.4ZM54.155,90.6c0,1.5-1.315,2.623-3.58,2.623s-3.962-1.127-3.962-2.623,1.7-2.614,3.962-2.614S54.155,89.1,54.155,90.6Zm-5.6,0c0,.767.9,1.385,2.019,1.385s2.018-.618,2.018-1.385-.9-1.377-2.018-1.377S48.556,89.84,48.556,90.6Zm8.637-1.385v.818h2.041v1.082H57.193v1.93H55.336V88.131h4.1v1.083ZM64.7,91.961h2.234v1.083H62.845V88.131H64.7Zm3.189-3.831h1.858v4.913H67.892Zm5.217,1.083v.818h2.041v1.082H73.109v1.93H71.252V88.131h3.911v1.083Zm5.017,0v.818H80.22v1.082H78.126v.847h2.212v1.083H76.269V88.131h4.068v1.083Zm4.834-1.194a1.189,1.189,0,1,1-1.181-1.195A1.193,1.193,0,0,1,82.96,88.019Zm-2.142,0a.952.952,0,1,0,.958-.982A.971.971,0,0,0,80.818,88.022Zm1.6.687H81.9l-.315-.46v.46h-.416V87.335h.6a.436.436,0,0,1,.491.433.378.378,0,0,1-.289.388l.454.552Zm-.792-.779c.13,0,.2-.051.2-.141s-.072-.14-.2-.14h-.045v.281ZM8.846,75.078c.048-.118,12.418,0,12.418,0s-.056,5.566-.051,5.53c0-.017-3.38-.05-3.38-.05-.79-.164-9.118-4.742-9.33-4.817v-.3C8.668,75.344,8.682,75.177,8.846,75.078Z" transform="translate(-8.504 -74.805)" fill="#fff" fill-rule="evenodd"/>
  <path id="Path_151" data-name="Path 151" d="M8.894,95.028c.048.118,12.418,0,12.418,0s-.056-5.567-.05-5.531c0,.017-3.38.05-3.38.05-.79.165-9.118,4.744-9.331,4.817v.3c.165.1.179.266.343.366Z" transform="translate(-8.531 -83.227)" fill="#fff" fill-rule="evenodd"/>
</svg>
