<svg xmlns="http://www.w3.org/2000/svg" width="217.102" height="39.259" viewBox="0 0 217.102 39.259">
  <g id="logo" transform="translate(-50 -46)">
    <path id="DataOn_Matrix" data-name="DataOn      Matrix" d="M43.235,14.745c0-4.19,5.786-4.531,7.969-4.531h.421v-.1c0-1.912-.763-2.619-2.473-2.619-.605,0-1.789.157-1.789.891v.707h-3.1V7.674c0-2.488,3.524-2.75,4.918-2.75,4.471,0,5.786,2.331,5.786,5.317v4.975a.525.525,0,0,0,.578.577H56.6v2.8h-3c-1.236,0-1.709-.681-1.709-1.467,0-.34.026-.576.026-.576h-.053a4.366,4.366,0,0,1-4.05,2.357C45.417,18.908,43.235,17.416,43.235,14.745Zm3.366-.157a1.786,1.786,0,0,0,2.026,1.728c1.788,0,3.051-1.886,3.051-3.509v-.315H51.1C49.363,12.492,46.6,12.728,46.6,14.588Zm-27.824.157c0-4.19,5.786-4.531,7.969-4.531h.421v-.1c0-1.912-.763-2.619-2.473-2.619-.605,0-1.788.157-1.788.891v.707H19.8V7.674c0-2.488,3.524-2.75,4.918-2.75,4.471,0,5.786,2.331,5.786,5.317v4.975a.525.525,0,0,0,.578.577h1.052v2.8h-3c-1.236,0-1.709-.681-1.709-1.467,0-.34.026-.576.026-.576H27.4a4.366,4.366,0,0,1-4.05,2.357C20.96,18.908,18.777,17.416,18.777,14.745Zm3.366-.157a1.786,1.786,0,0,0,2.025,1.728c1.789,0,3.051-1.886,3.051-3.509v-.315h-.579C24.9,12.492,22.143,12.728,22.143,14.588Zm12.728-.89V7.883H33.136V5.237h1.815V1.6h3.262v3.64h3.05V7.883h-3.05v5.394a2.379,2.379,0,0,0,2.656,2.515,3.063,3.063,0,0,0,.6-.053v2.907a6.176,6.176,0,0,1-1.026.078C38.58,18.726,34.872,18.175,34.872,13.7ZM3.5,18.595c-1.262,0-1.789-.524-1.789-1.781V2.907H0V0H7.6c5.759,0,9.521,3.4,9.521,9.271S13.361,18.595,7.6,18.595Zm1.657-3.483a.525.525,0,0,0,.578.576H7.417c3.735,0,6.128-2.226,6.128-6.416,0-4.138-2.446-6.364-6.128-6.364H5.155Z" transform="translate(50 49.457)" fill="#f09300"/>
    <path id="Shape_1_copy_8" data-name="Shape 1 copy 8" d="M7.544,33.869v-5.69h5.622v5.69Zm6.918-6.884V21.3h5.622v5.689ZM0,26.985V21.3H5.622v5.689ZM7.544,5.69V0h5.622V5.69Z" transform="translate(155.838 46)" fill="#f09300"/>
    <path id="Union_1" data-name="Union 1" d="M102.564,15.059c0-4.19,5.786-4.53,7.969-4.53h.421v-.105c0-1.912-.763-2.619-2.472-2.619-.605,0-1.789.158-1.789.891V9.4h-3.1V7.988c0-2.488,3.524-2.749,4.918-2.749,4.472,0,5.786,2.33,5.786,5.316V15.53a.525.525,0,0,0,.579.576h1.052v2.8h-3c-1.236,0-1.709-.681-1.709-1.467a5.665,5.665,0,0,1,.027-.576h-.053a4.367,4.367,0,0,1-4.051,2.357C104.748,19.223,102.564,17.73,102.564,15.059Zm3.367-.157a1.786,1.786,0,0,0,2.025,1.728c1.789,0,3.051-1.885,3.051-3.509v-.315h-.578C108.693,12.806,105.931,13.042,105.931,14.9ZM0,9.481A9.414,9.414,0,0,1,9.653,0,9.414,9.414,0,0,1,19.3,9.481a9.536,9.536,0,0,1-9.652,9.743A9.537,9.537,0,0,1,0,9.481Zm3.577,0a6.254,6.254,0,0,0,6.076,6.547,6.254,6.254,0,0,0,6.076-6.547,6.079,6.079,0,1,0-12.151,0Zm115.082,4.531V8.2h-1.736V5.552h1.814V1.912H122v3.64h3.051V8.2H122v5.4a2.379,2.379,0,0,0,2.656,2.514,3.076,3.076,0,0,0,.605-.053v2.907a6.118,6.118,0,0,1-1.026.079C122.367,19.04,118.659,18.489,118.659,14.012Zm-79.1,4.92h-6.1v-.022h-.113c-1.262,0-1.789-.524-1.789-1.781V11c0-1.623-.421-2.724-2.1-2.724A3.676,3.676,0,0,0,25.852,11a5.61,5.61,0,0,0-.263,1.782v6.128H22.275V8.957a.514.514,0,0,0-.578-.576H20.644V5.552h3.077c1.183,0,1.763.549,1.763,1.493v.392a3.665,3.665,0,0,1-.053.576h.053a5.158,5.158,0,0,1,4.734-2.775c2.972,0,4.682,1.545,4.682,5.081v7.02a.525.525,0,0,0,.284.517h4.391v.012l1.465-1.7V10.633h5.327L47.957,8.5V3.124h5.622V8.116l1.973,2.518H60.9l1.7-2.19V3.124h5.622V8.589l1.571,2.044h4.728v5.431l1.53,1.8h4.228a.627.627,0,0,0,.409-.626L81.894.314h3.577l3.84,8.852c.447,1.074.921,2.488.921,2.488h.053s.473-1.414.921-2.488L95.044.314h3.577l1.209,15.111a.537.537,0,0,0,.579.576h.815v2.908H98.253c-1.236,0-1.657-.524-1.762-1.781L95.86,8.852a26.5,26.5,0,0,1-.027-2.881h-.053a30.439,30.439,0,0,1-1.026,2.881l-3.1,6.862H88.864l-3.1-6.862a29.944,29.944,0,0,1-1.026-2.907h-.053a26.914,26.914,0,0,1-.026,2.907l-.605,8.277c-.105,1.257-.583,1.744-1.819,1.744H75.94l-2.211-2.549H68.9V10.668l-1.51-1.855H63.378l-2.256,2.8v4.714H55.5v-4.5l-2.45-3.009h-4.27l-2.119,2.6v4.908H41.989l-2.415,2.6v.008h-.008l0,0Zm114.757-.022-2.341-3.72a4.543,4.543,0,0,1-.368-.707h-.053s-.21.419-.395.707l-2.314,3.72h-3.709l4.366-6.757L147.3,8.826c-.263-.393-.473-.445-1.026-.445H145.3V5.552h2.341a2.077,2.077,0,0,1,2.183,1.257l1.315,2.2c.184.34.421.863.421.863h.053s.236-.524.421-.863l1.315-2.2a2.057,2.057,0,0,1,2.182-1.257h2.315V8.381H156.9c-.552,0-.763.052-1.026.445l-2.236,3.326,4.392,6.757Zm-13.282,0c-1.236,0-1.762-.524-1.762-1.781V8.957a.514.514,0,0,0-.579-.576h-1.052V5.552h3.182c1.236,0,1.762.549,1.762,1.781v8.2a.526.526,0,0,0,.579.576h1.052v2.8Zm-12.7,0V8.957a.514.514,0,0,0-.579-.576h-1.052V5.552h3.05c1.183,0,1.788.5,1.788,1.623v.786a6.088,6.088,0,0,1-.053.838h.053a4.612,4.612,0,0,1,4.261-3.431,4.285,4.285,0,0,1,.6.053V8.695a5.929,5.929,0,0,0-.815-.053,3.774,3.774,0,0,0-3.656,2.8,8.035,8.035,0,0,0-.29,2.173v5.291Zm11.1-15.53V.314h2.893V3.379Z" transform="translate(107.882 49.142)" fill="#0a43af"/>
    <path id="Solutions" d="M57.624,9.453l.7-.995a3.291,3.291,0,0,0,2.164.851c.627,0,1.254-.317,1.254-.908,0-1.34-3.881-1.066-3.881-3.444,0-1.325,1.224-2.075,2.732-2.075a3.458,3.458,0,0,1,2.433.808l-.582,1.052a2.814,2.814,0,0,0-1.866-.649c-.627,0-1.24.26-1.24.894,0,1.31,3.881,1.022,3.881,3.415,0,1.21-1.075,2.118-2.732,2.118A4.13,4.13,0,0,1,57.624,9.453ZM39.367,6.685a4.085,4.085,0,0,1,8.151,0,4.083,4.083,0,0,1-8.151,0Zm1.478,0a2.6,2.6,0,1,0,5.2,0,2.6,2.6,0,0,0-5.2,0ZM21.826,7.724V3.055h1.448V7.406c0,1.009.209,1.816,1.419,1.816A2.542,2.542,0,0,0,27.141,6.47V3.055h1.448v7.291h-1.4V9.38a4.515,4.515,0,0,1,.031-.533h-.031a3.05,3.05,0,0,1-2.776,1.672C22.707,10.519,21.826,9.655,21.826,7.724ZM8.107,6.685a3.879,3.879,0,0,1,4.075-3.8,3.88,3.88,0,0,1,4.076,3.8,3.893,3.893,0,0,1-4.076,3.833A3.892,3.892,0,0,1,8.107,6.685Zm1.478,0a2.6,2.6,0,1,0,5.2,0,2.6,2.6,0,0,0-5.2,0ZM0,9.179.837,8.1a4.221,4.221,0,0,0,2.687,1.1c.985,0,1.821-.533,1.821-1.5,0-2.2-5.105-1.729-5.105-4.856C.239,1.254,1.658,0,3.642,0A4.4,4.4,0,0,1,6.629,1.023L5.957,2.2a3.779,3.779,0,0,0-2.315-.879c-1.119,0-1.911.677-1.911,1.484,0,2.1,5.105,1.543,5.105,4.842,0,1.571-1.254,2.867-3.344,2.867A5.01,5.01,0,0,1,0,9.179Zm31.171-1.5V4.28h-.985V3.155h1.029v-2.1h1.4v2.1h1.822V4.28H32.619V7.522a1.478,1.478,0,0,0,1.612,1.643,1.817,1.817,0,0,0,.344-.029v1.239a4.147,4.147,0,0,1-.508.029A2.571,2.571,0,0,1,31.171,7.681Zm-13.286.677V.173h1.448v7.94c0,.878.358,1.037.806,1.037a2.4,2.4,0,0,0,.254-.014v1.239a4.248,4.248,0,0,1-.478.029A1.8,1.8,0,0,1,17.885,8.358Zm36.739,1.988V5.995c0-1.024-.224-1.831-1.433-1.831A2.461,2.461,0,0,0,50.8,5.951a3.357,3.357,0,0,0-.119.979v3.416H49.235V3.055h1.4V4.02a4.972,4.972,0,0,1-.03.533h.03a3.081,3.081,0,0,1,2.836-1.672c1.777,0,2.6.936,2.6,2.795v4.669Zm-18.422,0V3.055H37.65v7.291ZM36.187,1.6V.173H37.65V1.6Z" transform="translate(203.879 74.74)" fill="#0a43ae"/>
  </g>
</svg>
