<svg xmlns="http://www.w3.org/2000/svg" width="107.67" height="17.691" viewBox="0 0 107.67 17.691">
  <g id="mercury-7" transform="translate(0 0)">
    <path id="Path_145" data-name="Path 145" d="M25.726,95.647,27.6,93.773H23.735a3.792,3.792,0,0,1-3.4-2.109h6.678l1.758-1.758H19.634a3.736,3.736,0,0,1-3.28-2.109H28.187l1.875-1.875H15.416c-1.992,0-3.046-2.109-3.046-2.109H29.476l1.875-1.875H8.5c2.226,4.8,5.506,5.858,5.506,5.858a6.514,6.514,0,0,0,3.983,3.866,5.875,5.875,0,0,0,4.687,3.983h3.046Z" transform="translate(-8.504 -81.939)" fill="#fff" fill-rule="evenodd"/>
    <path id="Path_146" data-name="Path 146" d="M45.923,81.939h5.155l.7,7.264H51.9c.234-.7.351-1.289.586-1.875l2.46-5.389h5.038L60.1,95.647h-4.8l.469-7.5h-.117c-.117.469-.352.937-.469,1.406l-2.929,6.092H49.321l-.937-5.741V88.148h-.117a6.707,6.707,0,0,1-.469,1.64l-1.406,5.858h-4.8l4.335-13.707Zm19.566,7.733a1.2,1.2,0,0,1,1.171-1.289c.7,0,1.054.586.937,1.289Zm6.444,1.991c.82-3.632-1.523-5.858-5.038-5.858a6.292,6.292,0,0,0-6.327,5.155c-.469,3.4,1.992,4.921,5.038,4.921,2.226,0,5.038-1.054,5.975-3.4H67.011a1.125,1.125,0,0,1-1.054.821c-.937,0-.937-.938-.82-1.641h6.795Zm8.67-1.171a2.135,2.135,0,0,0-1.289-.469A1.979,1.979,0,0,0,77.2,91.9l-.586,3.749H71.932l1.523-9.607h4.686l-.35,1.289h.117a3.719,3.719,0,0,1,3.514-1.523Zm8.318-.352a2.319,2.319,0,0,0-1.522-.7,1.59,1.59,0,0,0-1.758,1.405,1.237,1.237,0,0,0,1.171,1.407,4.818,4.818,0,0,0,1.992-.821l-.938,3.983a7.56,7.56,0,0,1-2.343.469c-3.164,0-5.038-1.758-4.57-5.038a5.906,5.906,0,0,1,5.741-5.038,10.875,10.875,0,0,1,2.812.469Zm5.976-4.1-.7,4.92c-.117.586-.117,1.173.585,1.173.821,0,.937-.586.937-1.173l.821-4.92h4.685l-.937,5.389c-.469,3.047-3.28,4.453-6.091,4.453s-5.273-1.406-4.687-4.453l.82-5.389H94.9Zm14.176,4.452a2.135,2.135,0,0,0-1.289-.469,1.914,1.914,0,0,0-2.109,1.875l-.585,3.749H100.4l1.523-9.607h4.687l-.352,1.289h.117a3.719,3.719,0,0,1,3.514-1.523Zm6.209-4.452.586,3.749v1.523h.117l.468-1.523,1.641-3.749h4.92L114.7,99.63h-4.921l3.281-4.92-2.812-8.67h5.038Zm9.021,0h1.992v.352h-.82v2.226h-.352V86.392h-.82Zm4.335,2.577V86.509l-.7,2.109h-.352l-.7-2.109v2.109h-.352V86.04H127l.82,2.109.7-2.109h.469v2.577Z" transform="translate(-21.32 -81.939)" fill="#fff" fill-rule="evenodd"/>
  </g>
</svg>
