<svg xmlns="http://www.w3.org/2000/svg" width="33" height="24.999" viewBox="0 0 33 24.999">
  <path id="Shape_66" data-name="Shape 66" d="M697.25,9507h-27.5a2.766,2.766,0,0,0-2.75,2.777v19.444a2.766,2.766,0,0,0,2.75,2.777h27.5a2.766,2.766,0,0,0,2.75-2.777v-19.444A2.766,2.766,0,0,0,697.25,9507Zm-27.5,1.389h27.5a1.273,1.273,0,0,1,.286.059c-2.381,2.2-10.275,9.5-13.038,12.01a1.37,1.37,0,0,1-2,0c-2.762-2.515-10.657-9.81-13.038-12.01A1.279,1.279,0,0,1,669.75,9508.389Zm-1.375,20.833v-19.444a1.359,1.359,0,0,1,.077-.384c1.822,1.685,7.331,6.774,10.9,10.056-3.56,3.089-9.07,8.365-10.907,10.135A1.352,1.352,0,0,1,668.375,9529.222Zm28.875,1.389h-27.5a1.318,1.318,0,0,1-.31-.062c1.9-1.828,7.443-7.135,10.94-10.157.456.418.872.8,1.2,1.1a2.727,2.727,0,0,0,3.837,0c.329-.3.745-.68,1.2-1.1,3.5,3.022,9.042,8.328,10.94,10.157A1.318,1.318,0,0,1,697.25,9530.61Zm1.375-1.389a1.352,1.352,0,0,1-.073.362c-1.838-1.77-7.347-7.046-10.907-10.135,3.572-3.281,9.079-8.37,10.9-10.056a1.354,1.354,0,0,1,.077.384Z" transform="translate(-667 -9507)" fill="#687a9b"/>
</svg>
