<svg xmlns="http://www.w3.org/2000/svg" width="82.546" height="20.33" viewBox="0 0 82.546 20.33">
  <g id="teinacher" transform="translate(0 0)">
    <path id="Path_159" data-name="Path 159" d="M46.987,87.2l1.657-2.352v-1.21a1.243,1.243,0,0,0-1.285-1.378c-.947,0-2.536,1.714-2.536,3.192,0,1.143.135,1.613.609,1.915.508.269.88-1.143,1.556-.168ZM8.5,78.9a26.8,26.8,0,0,0,3.111-1.445h12.14L20.171,78.9v4.8l-.44,1.311V78.9H17.094S17.06,91.7,17.06,91.97s.1,1.613,2.029,1.58l-2.3,2.587s-2.739-.369-2.739-2.89V78.9H8.5ZM28.287,81.52V95.734H31.33V81.52H29.977a2.855,2.855,0,0,1,2.164-2.89l-.981-1.747c-1.589.5-1.589,2.823-1.556,4.637H28.287ZM22.166,87.5c-.2-1.31-.068-4.369.507-4.637.372-.168,1.42-.336,2.638,1.647L22.166,87.5Zm0,.705,5.445-4.973a7.662,7.662,0,0,0-1.42-1.647,3.108,3.108,0,0,0-1.758-.672,3.044,3.044,0,0,0-2.773,1.512,11.6,11.6,0,0,0-1.928,6.283,10.117,10.117,0,0,0,1.725,6.116A2.986,2.986,0,0,0,23.755,96a5.329,5.329,0,0,0,3.788-2.386,3.373,3.373,0,0,1-4.295-1.68,8,8,0,0,1-1.082-3.73Zm53.566-.6c-.2-1.344-.068-4.4.507-4.671.372-.168,1.42-.37,2.637,1.647Zm-.034.639,5.478-4.94a7.326,7.326,0,0,0-1.454-1.647A2.923,2.923,0,0,0,78,80.982a3.039,3.039,0,0,0-2.773,1.546,11.038,11.038,0,0,0-1.928,6.25,10.063,10.063,0,0,0,1.758,6.116A2.774,2.774,0,0,0,77.32,96.07a5.187,5.187,0,0,0,3.753-2.386A3.333,3.333,0,0,1,76.813,92,8.38,8.38,0,0,1,75.7,88.24Zm9.03-5.007V91.97s0,1.58,2.028,1.58l-2.028,2.184c-.677.739-3.044-.538-3.044-3.058V81.52h3.044V82.7l2.4-1.411a2.3,2.3,0,0,1,2.164.4l1.184-.739.237.4-3.686,2.487s-.71-1.479-1.691-.941l-.608.336ZM32.683,83.1A19.811,19.811,0,0,0,36.1,80.78a5.667,5.667,0,0,1,1.015,1.008,1.848,1.848,0,0,1,.271,1.243s2.333-1.882,3.382-1.882c1.116,0,1.826.975,1.826,2.419V94.625a2.376,2.376,0,0,0,.237,1.109H39.581v-11.9s0-1.042-.778-1.042a1.579,1.579,0,0,0-1.42,1.142V95.734H34.272V83.7c.068-.874-1.589-.6-1.589-.6Zm28.409-.982a4.8,4.8,0,0,0-2.709-1.169c-1.928,0-5.478,2.957-5.445,8.031,0,5.074,2.063,7.225,4.3,7.225,2.672,0,5.14-4.6,5.14-4.6v4.134h3.044V84.04A1.865,1.865,0,0,1,66.972,82.9c1.319,0,3.382,2.688,3.315,7.594a8.172,8.172,0,0,1-.71,4.066c-.507.6-1.083.269-.913,1.109.135.907,3.889-2.722,3.889-8.6,0-4.2-1.827-6.015-3.348-6.015-1.589,0-3.787,2.184-3.787,2.184V77.387H62.374v3.764l-1.282.967A10.212,10.212,0,0,1,62.374,83.3v7.023c0,.4-1.454,3.427-3.111,3.427-2.469,0-3.754-4.133-3.754-6.787,0-2.352.44-4.671,1.488-4.671.981,0,1.725,1.613,1.725,1.613l2.37-1.789Zm-12.448,3.67-2.367,3.36c-.406.6,1.387,3.159,1.894,3.159.2,0,.473-.571.473-.571V85.788ZM46.581,87.8s-.2.2-.947.2c-.879,0-1.42-1.008-1.42-2.252,0-2.654,2.841-4.771,5.343-4.771a2.133,2.133,0,0,1,2.164,2.184V94.726a3.283,3.283,0,0,0,.3,1.008H48.644V92.676s-1.928,3.159-2.333,3.159c-.609,0-2.4-3.428-2.435-4.066C43.876,91.332,46.581,87.8,46.581,87.8Z" transform="translate(-8.504 -75.875)" fill="#fff"/>
    <path id="Path_160" data-name="Path 160" d="M46.987,87.2l1.657-2.352v-1.21a1.243,1.243,0,0,0-1.285-1.378c-.947,0-2.536,1.713-2.536,3.192,0,1.143.135,1.613.609,1.915.507.269.879-1.143,1.556-.168ZM8.5,78.9a26.8,26.8,0,0,0,3.111-1.445h12.14L20.171,78.9v4.8l-.44,1.311V78.9H17.094S17.06,91.7,17.06,91.97s.1,1.613,2.029,1.58l-2.3,2.587s-2.739-.369-2.739-2.89V78.9H8.5ZM28.287,81.52V95.734H31.33V81.52H29.977a2.855,2.855,0,0,1,2.164-2.89l-.981-1.747c-1.589.5-1.589,2.823-1.556,4.637H28.287ZM22.166,87.5c-.2-1.31-.068-4.369.507-4.637.372-.168,1.42-.336,2.638,1.647L22.166,87.5Zm0,.705,5.445-4.973a7.662,7.662,0,0,0-1.42-1.647,3.108,3.108,0,0,0-1.758-.672,3.044,3.044,0,0,0-2.773,1.512,11.6,11.6,0,0,0-1.928,6.283,10.117,10.117,0,0,0,1.725,6.116A2.986,2.986,0,0,0,23.755,96a5.329,5.329,0,0,0,3.788-2.386,3.373,3.373,0,0,1-4.295-1.68,8,8,0,0,1-1.082-3.73Zm53.566-.6c-.2-1.344-.068-4.4.507-4.671.372-.168,1.42-.37,2.637,1.647Zm-.034.639,5.478-4.94a7.326,7.326,0,0,0-1.454-1.647A2.923,2.923,0,0,0,78,80.982a3.039,3.039,0,0,0-2.773,1.546,11.038,11.038,0,0,0-1.928,6.25,10.063,10.063,0,0,0,1.758,6.116A2.774,2.774,0,0,0,77.32,96.07a5.187,5.187,0,0,0,3.753-2.386A3.333,3.333,0,0,1,76.813,92,8.38,8.38,0,0,1,75.7,88.24Zm9.03-5.007V91.97s0,1.58,2.028,1.58l-2.028,2.184c-.677.739-3.044-.538-3.044-3.058V81.52h3.044V82.7l2.4-1.411a2.3,2.3,0,0,1,2.164.4l1.184-.739.237.4-3.686,2.487s-.71-1.479-1.691-.941l-.608.336ZM32.683,83.1A19.811,19.811,0,0,0,36.1,80.78a5.667,5.667,0,0,1,1.015,1.008,1.848,1.848,0,0,1,.271,1.243s2.333-1.882,3.382-1.882c1.116,0,1.826.975,1.826,2.419V94.625a2.375,2.375,0,0,0,.237,1.109H39.581v-11.9s0-1.042-.778-1.042a1.579,1.579,0,0,0-1.42,1.142V95.734H34.272V83.7c.068-.874-1.589-.6-1.589-.6Zm28.409-.982a4.8,4.8,0,0,0-2.709-1.169c-1.928,0-5.478,2.957-5.445,8.031,0,5.074,2.063,7.225,4.3,7.225,2.672,0,5.14-4.6,5.14-4.6v4.134h3.044V84.04A1.865,1.865,0,0,1,66.972,82.9c1.319,0,3.382,2.688,3.315,7.594a8.171,8.171,0,0,1-.71,4.066c-.507.6-1.083.269-.913,1.109.135.907,3.889-2.722,3.889-8.6,0-4.2-1.827-6.015-3.348-6.015-1.589,0-3.787,2.184-3.787,2.184V77.387H62.374v3.764l-1.282.967A10.212,10.212,0,0,1,62.374,83.3v7.023c0,.4-1.454,3.427-3.111,3.427-2.469,0-3.754-4.133-3.754-6.787,0-2.352.44-4.671,1.488-4.671.981,0,1.725,1.613,1.725,1.613l2.37-1.789Zm-12.448,3.67-2.367,3.36c-.406.6,1.387,3.159,1.894,3.159.2,0,.473-.571.473-.571V85.788ZM46.581,87.8s-.2.2-.947.2c-.879,0-1.42-1.008-1.42-2.251,0-2.655,2.841-4.772,5.343-4.772a2.133,2.133,0,0,1,2.164,2.184V94.726a3.283,3.283,0,0,0,.3,1.008H48.644V92.676s-1.928,3.159-2.333,3.159c-.609,0-2.4-3.427-2.435-4.066C43.876,91.332,46.581,87.8,46.581,87.8Z" transform="translate(-8.504 -75.875)" fill="none"/>
    <path id="Path_161" data-name="Path 161" d="M46.987,86.061l1.657-2.352V82.5a1.243,1.243,0,0,0-1.285-1.378c-.947,0-2.536,1.714-2.536,3.192,0,1.143.135,1.613.609,1.915.508.269.88-1.143,1.556-.168ZM8.5,77.76a26.8,26.8,0,0,0,3.111-1.445h12.14L20.171,77.76v4.8l-.44,1.311V77.76H17.094s-.034,12.8-.034,13.071.1,1.613,2.029,1.58L16.789,95s-2.739-.369-2.739-2.89V77.761H8.5Zm19.783,2.621V94.6H31.33V80.382H29.977a2.855,2.855,0,0,1,2.164-2.89l-.981-1.747c-1.589.5-1.589,2.823-1.556,4.637Zm-6.121,5.981c-.2-1.31-.068-4.369.507-4.637.372-.168,1.42-.336,2.638,1.647l-3.145,2.99Zm0,.705L27.61,82.1a7.662,7.662,0,0,0-1.42-1.647,3.108,3.108,0,0,0-1.758-.672,3.044,3.044,0,0,0-2.773,1.512,11.6,11.6,0,0,0-1.928,6.283,10.117,10.117,0,0,0,1.725,6.116,2.986,2.986,0,0,0,2.3,1.177,5.329,5.329,0,0,0,3.788-2.386,3.373,3.373,0,0,1-4.295-1.68,8,8,0,0,1-1.082-3.73Zm53.566-.6c-.2-1.344-.068-4.4.507-4.671.372-.168,1.42-.37,2.637,1.647ZM75.7,87.1l5.478-4.94a7.326,7.326,0,0,0-1.454-1.647A2.923,2.923,0,0,0,78,79.844a3.039,3.039,0,0,0-2.773,1.546A11.038,11.038,0,0,0,73.3,87.64a10.063,10.063,0,0,0,1.758,6.116,2.774,2.774,0,0,0,2.266,1.176,5.187,5.187,0,0,0,3.753-2.386,3.333,3.333,0,0,1-4.26-1.68A8.38,8.38,0,0,1,75.7,87.1Zm9.03-5.007v8.737s0,1.58,2.028,1.58L84.727,94.6c-.677.739-3.044-.538-3.044-3.058V80.381h3.044v1.176l2.4-1.411a2.3,2.3,0,0,1,2.164.4l1.184-.739.237.4L87.025,82.7s-.71-1.479-1.691-.941l-.608.336Zm-52.044-.134A19.811,19.811,0,0,0,36.1,79.642a5.667,5.667,0,0,1,1.015,1.008,1.848,1.848,0,0,1,.271,1.243s2.333-1.882,3.382-1.882c1.116,0,1.826.975,1.826,2.419V93.486a2.376,2.376,0,0,0,.237,1.109H39.581V82.7s0-1.042-.778-1.042a1.579,1.579,0,0,0-1.42,1.142V94.6H34.272V82.566C34.34,81.692,32.683,81.961,32.683,81.961Zm28.409-.982a4.8,4.8,0,0,0-2.709-1.169c-1.928,0-5.478,2.957-5.445,8.031,0,5.074,2.063,7.225,4.3,7.225,2.672,0,5.14-4.6,5.14-4.6V94.6h3.044V82.9a1.865,1.865,0,0,1,1.555-1.143c1.319,0,3.382,2.688,3.315,7.594a8.172,8.172,0,0,1-.71,4.066c-.507.6-1.083.269-.913,1.109.135.907,3.889-2.722,3.889-8.6,0-4.2-1.827-6.015-3.348-6.015-1.589,0-3.787,2.184-3.787,2.184V76.248H62.374v3.764l-1.282.967a10.213,10.213,0,0,1,1.282,1.183v7.023c0,.4-1.454,3.427-3.111,3.427-2.469,0-3.754-4.133-3.754-6.787,0-2.352.44-4.671,1.488-4.671.981,0,1.725,1.613,1.725,1.613l2.37-1.789Zm-12.448,3.67-2.367,3.36c-.406.6,1.387,3.159,1.894,3.159.2,0,.473-.571.473-.571V84.649Zm-2.063,2.016s-.2.2-.947.2c-.879,0-1.42-1.008-1.42-2.252,0-2.654,2.841-4.771,5.343-4.771a2.133,2.133,0,0,1,2.164,2.184V93.588a3.283,3.283,0,0,0,.3,1.008H48.644V91.538S46.716,94.7,46.311,94.7c-.609,0-2.4-3.428-2.435-4.066C43.876,90.193,46.581,86.665,46.581,86.665ZM89.46,77.827a1.546,1.546,0,1,0,0-3.091,1.546,1.546,0,1,0,0,3.091Zm0-2.755a1.188,1.188,0,0,1,1.218,1.209,1.218,1.218,0,0,1-2.436,0A1.188,1.188,0,0,1,89.46,75.072Zm-.338,1.075h.507c.169,0,.271-.033.271-.2,0-.2-.2-.2-.372-.2h-.405Zm.676.269.372.672h-.339l-.405-.672h-.3v.672h-.339V75.475H89.6c.372,0,.676.067.676.47a.426.426,0,0,1-.473.471Z" transform="translate(-8.504 -74.736)" fill="#fff" fill-rule="evenodd"/>
  </g>
</svg>
