<svg xmlns="http://www.w3.org/2000/svg" width="26.214" height="26.519" viewBox="0 0 26.214 26.519">
  <g id="Group_298" data-name="Group 298" transform="translate(-140 58.593)">
    <path id="Union_2" data-name="Union 2" d="M21.812,10.336V5.907L20.63,4.455H17.491L15.726,6.644v3.692h-4.4V6.811L9.406,4.455H6.062L4.4,6.493v3.843H0V5.881H4.17L5.416,4.209V0h4.4V3.909l1.545,1.972h4.185l1.331-1.715V0h4.4V4.279l1.231,1.6h3.7v4.455Z" transform="translate(140 -52.904)" fill="#0a43af"/>
    <path id="Union_3" data-name="Union 3" d="M5.907,26.519V22.064h4.4v4.456Zm5.417-5.39V16.674h4.4v4.455ZM0,21.129V16.674H4.4v4.455ZM5.907,4.455V0h4.4V4.455Z" transform="translate(145.355 -58.593)" fill="#f09300"/>
  </g>
</svg>
